<svg width="60" height="60" viewBox="0 0 40 40" fill="none" xmlns="http://www.w3.org/2000/svg">
<path d="M17.7071 13.8074C17.6143 13.7144 17.5041 13.6407 17.3828 13.5904C17.2615 13.5401 17.1314 13.5142 17.0001 13.5142C16.8688 13.5142 16.7387 13.5401 16.6174 13.5904C16.4961 13.6407 16.3859 13.7144 16.2931 13.8074L14.6991 15.4014C13.9601 15.1814 12.5811 14.6814 11.7071 13.8074C10.8331 12.9334 10.3331 11.5544 10.1131 10.8154L11.7071 9.22136C11.8 9.12857 11.8738 9.01837 11.9241 8.89705C11.9744 8.77574 12.0003 8.64569 12.0003 8.51436C12.0003 8.38303 11.9744 8.25298 11.9241 8.13167C11.8738 8.01035 11.8 7.90015 11.7071 7.80736L7.70709 3.80736C7.6143 3.71442 7.5041 3.64068 7.38278 3.59037C7.26147 3.54006 7.13142 3.51416 7.00009 3.51416C6.86876 3.51416 6.73871 3.54006 6.6174 3.59037C6.49608 3.64068 6.38588 3.71442 6.29309 3.80736L3.58109 6.51936C3.20109 6.89936 2.98709 7.42136 2.99509 7.95436C3.01809 9.37836 3.39509 14.3244 7.29309 18.2224C11.1911 22.1204 16.1371 22.4964 17.5621 22.5204H17.5901C18.1181 22.5204 18.6171 22.3124 18.9951 21.9344L21.7071 19.2224C21.8 19.1296 21.8738 19.0194 21.9241 18.8981C21.9744 18.7767 22.0003 18.6467 22.0003 18.5154C22.0003 18.384 21.9744 18.254 21.9241 18.1327C21.8738 18.0114 21.8 17.9011 21.7071 17.8084L17.7071 13.8074ZM17.5801 20.5194C16.3321 20.4984 12.0621 20.1634 8.70709 16.8074C5.34109 13.4414 5.01509 9.15636 4.99509 7.93336L7.00009 5.92836L9.58609 8.51436L8.29309 9.80736C8.17555 9.92481 8.08913 10.0697 8.04164 10.2289C7.99415 10.3882 7.98709 10.5567 8.02109 10.7194C8.04509 10.8344 8.63209 13.5614 10.2921 15.2214C11.9521 16.8814 14.6791 17.4684 14.7941 17.4924C14.9566 17.5273 15.1254 17.5208 15.2847 17.4735C15.4441 17.4261 15.589 17.3394 15.7061 17.2214L17.0001 15.9284L19.5861 18.5144L17.5801 20.5194Z" fill="white"/>
</svg>
